#Vertices
v -3.500000 0.000000 -10.000000
v -3.500000 0.000000 0.000000
v 7.500000 0.000000 0.000000
v 7.500000 0.000000 -10.000000
v -3.500000 4.000000 0.000000
v -2.500000 4.000000 0.000000
v -2.500000 0.000000 0.000000
v 2.500000 0.000000 0.000000
v 2.500000 4.000000 0.000000
v 7.500000 4.000000 0.000000
v 7.500000 0.000000 0.000000
v -3.500000 6.000000 0.000000
v 7.500000 6.000000 0.000000

#Indices
f 1/1/1 2/2/1 3/3/1
f 1/1/1 3/3/1 4/4/1
f 2/5/2 5/2/2 6/6/2
f 2/5/2 6/6/2 7/7/2
f 8/5/2 9/2/2 10/8/2
f 8/5/2 10/8/2 11/9/2
f 5/10/2 12/2/2 13/11/2
f 5/10/2 13/11/2 10/12/2
f 7/10/2 6/2/2 9/13/2
f 7/10/2 9/13/2 8/14/2

#Normal 
vn 0.000000 1.000000 0.000000
vn 0.000000 0.000000 -1.000000

#UV
vt 0.000000 4.000000  
vt 0.000000 0.000000  
vt 4.000000 0.000000  
vt 4.000000 4.000000  
vt 0.000000 2.000000  
vt 0.500000 0.000000  
vt 0.500000 2.000000  
vt 2.000000 0.000000  
vt 2.000000 2.000000  
vt 0.000000 1.000000  
vt 6.000000 0.000000  
vt 6.000000 1.000000 
vt 1.000000 0.000000  
vt 1.000000 1.000000








